PathFileType	4	(X/Y/Z)	two_link_01.trc																
DataRate	CameraRate	NumFrames	NumMarkers	Units	OrigDataRate	OrigDataStartFrame	OrigNumFrames												
60	60	26	6	m	60	948	2526												
Frame#	Time	Link2_Marker_1			Link2_Marker_2			Link2_Marker_3			Link1_Marker_1			Link1_Marker_2			Link1_Marker_3		
		X1	Y1	Z1	X2	Y2	Z2	X3	Y3	Z3	X4	Y4	Z4	X5	Y5	Z5	X6	Y6	Z6
																			
948	0.16710108	0.22053059	0.48912034	0	0.22053059	0.48912034	0.1	0.13459471	0.54025765	0	0.07734612	0.24849988	0	0.07734612	0.24849988	0.1	0	0	83.72016503
949	0.16746208	0.22099684	0.48885756	0	0.22099684	0.48885756	0.1	0.13515358	0.54015019	0	0.07737745	0.24849643	0	0.07737745	0.24849643	0.1	0	0	83.71294117
950	0.168	0.22171275	0.48843696	0	0.22171275	0.48843696	0.1	0.13601902	0.53997901	0	0.077395	0.2484945	0	0.077395	0.2484945	0.1	0	0	83.70889552
951	0.16801525	0.22173341	0.48842454	0	0.22173341	0.48842454	0.1	0.13604411	0.53997397	0	0.07739501	0.24849449	0	0.07739501	0.24849449	0.1	0	0	83.70889323
952	0.16803051	0.22175403	0.48841215	0	0.22175403	0.48841215	0.1	0.13606915	0.53996893	0	0.07739504	0.24849449	0	0.07739504	0.24849449	0.1	0	0	83.70888635
953	0.16810678	0.22185675	0.48835056	0	0.22185675	0.48835056	0.1	0.13619384	0.53994385	0	0.07739555	0.24849443	0	0.07739555	0.24849443	0.1	0	0	83.70876832
954	0.16848815	0.22235982	0.48805248	0	0.22235982	0.48805248	0.1	0.13680293	0.53982137	0	0.07740692	0.24849318	0	0.07740692	0.24849318	0.1	0	0	83.70614589
955	0.169	0.22300771	0.48767838	0	0.22300771	0.48767838	0.1	0.13758291	0.53966495	0	0.0774453	0.24848894	0	0.0774453	0.24848894	0.1	0	0	83.69729828
956	0.1690158	0.22302723	0.48766728	0	0.22302723	0.48766728	0.1	0.13760634	0.53966027	0	0.07744688	0.24848877	0	0.07744688	0.24848877	0.1	0	0	83.69693216
957	0.16903159	0.22304678	0.48765617	0	0.22304678	0.48765617	0.1	0.13762979	0.53965557	0	0.07744845	0.2484886	0	0.07744845	0.2484886	0.1	0	0	83.69657062
958	0.16911058	0.22314493	0.48760014	0	0.22314493	0.48760014	0.1	0.13774765	0.53963191	0	0.07745598	0.24848777	0	0.07745598	0.24848777	0.1	0	0	83.69483571
959	0.16950551	0.22364593	0.48730912	0	0.22364593	0.48730912	0.1	0.13835142	0.53950917	0	0.07748579	0.24848447	0	0.07748579	0.24848447	0.1	0	0	83.68796136
960	0.17	0.2242972	0.48691891	0	0.2242972	0.48691891	0.1	0.13914129	0.53934477	0	0.07750477	0.24848237	0	0.07750477	0.24848237	0.1	0	0	83.68358568
961	0.1700246	0.22433022	0.4868988	0	0.22433022	0.4868988	0.1	0.13918148	0.5393363	0	0.07750521	0.24848232	0	0.07750521	0.24848232	0.1	0	0	83.68348198
962	0.17004919	0.22436316	0.48687876	0	0.22436316	0.48687876	0.1	0.13922156	0.53932785	0	0.0775057	0.24848227	0	0.0775057	0.24848227	0.1	0	0	83.6833691
963	0.17017218	0.2245266	0.48677954	0	0.2245266	0.48677954	0.1	0.13942031	0.53928592	0	0.07750875	0.24848193	0	0.07750875	0.24848193	0.1	0	0	83.68266723
964	0.17078712	0.22531198	0.48630856	0	0.22531198	0.48630856	0.1	0.14037271	0.53908469	0	0.07753882	0.2484786	0	0.07753882	0.2484786	0.1	0	0	83.67573272
965	0.171	0.22557158	0.48615534	0	0.22557158	0.48615534	0.1	0.14068639	0.53901841	0	0.07755499	0.2484768	0	0.07755499	0.2484768	0.1	0	0	83.67200391
966	0.17102138	0.22559736	0.48614019	0	0.22559736	0.48614019	0.1	0.14071751	0.53901184	0	0.07755676	0.24847661	0	0.07755676	0.24847661	0.1	0	0	83.67159711
967	0.17104277	0.2256232	0.48612499	0	0.2256232	0.48612499	0.1	0.14074871	0.53900524	0	0.0775585	0.24847642	0	0.0775585	0.24847642	0.1	0	0	83.6711949
968	0.17114969	0.22575329	0.48604819	0	0.22575329	0.48604819	0.1	0.1409059	0.5389719	0	0.07756688	0.24847549	0	0.07756688	0.24847549	0.1	0	0	83.66926345
969	0.1716843	0.22642588	0.48564461	0	0.22642588	0.48564461	0.1	0.14172129	0.53879659	0	0.07760032	0.24847177	0	0.07760032	0.24847177	0.1	0	0	83.66155144
970	0.172	0.22684032	0.48539086	0	0.22684032	0.48539086	0.1	0.14222584	0.53868617	0	0.07761347	0.24847031	0	0.07761347	0.24847031	0.1	0	0	83.65851878
971	0.17202423	0.22687259	0.48537097	0	0.22687259	0.48537097	0.1	0.14226518	0.5386775	0	0.0776143	0.24847022	0	0.0776143	0.24847022	0.1	0	0	83.65832741
972	0.17205448	0.22691274	0.48534622	0	0.22691274	0.48534622	0.1	0.14231413	0.53866671	0	0.07761536	0.2484701	0	0.07761536	0.2484701	0.1	0	0	83.65808276
973	0.17220572	0.22711131	0.48522394	0	0.22711131	0.48522394	0.1	0.14255614	0.53861329	0	0.07762112	0.24846946	0	0.07762112	0.24846946	0.1	0	0	83.65675636
